M48
; DRILL file {KiCad 8.0.4} date 2024-08-12T11:23:26+0200
; FORMAT={-:-/ absolute / inch / decimal}
; #@! TF.CreationDate,2024-08-12T11:23:26+02:00
; #@! TF.GenerationSoftware,Kicad,Pcbnew,8.0.4
; #@! TF.FileFunction,Plated,1,2,PTH
FMAT,2
INCH
; #@! TA.AperFunction,Plated,PTH,ComponentDrill
T1C0.0315
; #@! TA.AperFunction,Plated,PTH,ComponentDrill
T2C0.0433
%
G90
G05
T1
X0.0984Y-0.2756
X0.0984Y-0.3543
X0.2953Y-0.1575
X0.2953Y-0.4575
X0.8465Y-0.2756
X1.2992Y-0.165
X1.2992Y-0.465
X1.8307Y-0.2756
X2.2835Y-0.1575
X2.2835Y-0.4575
X2.815Y-0.2756
X3.0512Y-0.2756
X3.0512Y-0.3543
T2
X0.4724Y-0.1772
X0.4724Y-0.4331
X0.6496Y-0.1772
X0.6496Y-0.4331
X1.4567Y-0.1772
X1.4567Y-0.4331
X1.6339Y-0.1772
X1.6339Y-0.4331
X2.4409Y-0.1772
X2.4409Y-0.4331
X2.6181Y-0.1772
X2.6181Y-0.4331
M30
