%TF.GenerationSoftware,KiCad,Pcbnew,8.0.4*%
%TF.CreationDate,2024-08-12T11:23:20+02:00*%
%TF.ProjectId,MusicPlayer-PlayPCB,4d757369-6350-46c6-9179-65722d506c61,rev?*%
%TF.SameCoordinates,Original*%
%TF.FileFunction,Profile,NP*%
%FSLAX46Y46*%
G04 Gerber Fmt 4.6, Leading zero omitted, Abs format (unit mm)*
G04 Created by KiCad (PCBNEW 8.0.4) date 2024-08-12 11:23:20*
%MOMM*%
%LPD*%
G01*
G04 APERTURE LIST*
%TA.AperFunction,Profile*%
%ADD10C,0.050000*%
%TD*%
%ADD11C,0.150000*%
G04 APERTURE END LIST*
D10*
X55250000Y-13000000D02*
G75*
G02*
X52750000Y-13000000I-1250000J0D01*
G01*
X52750000Y-13000000D02*
G75*
G02*
X55250000Y-13000000I1250000J0D01*
G01*
X55250000Y-3000000D02*
G75*
G02*
X52750000Y-3000000I-1250000J0D01*
G01*
X52750000Y-3000000D02*
G75*
G02*
X55250000Y-3000000I1250000J0D01*
G01*
X27250000Y-13000000D02*
G75*
G02*
X24750000Y-13000000I-1250000J0D01*
G01*
X24750000Y-13000000D02*
G75*
G02*
X27250000Y-13000000I1250000J0D01*
G01*
X27250000Y-3000000D02*
G75*
G02*
X24750000Y-3000000I-1250000J0D01*
G01*
X24750000Y-3000000D02*
G75*
G02*
X27250000Y-3000000I1250000J0D01*
G01*
X4250000Y-13000000D02*
G75*
G02*
X1750000Y-13000000I-1250000J0D01*
G01*
X1750000Y-13000000D02*
G75*
G02*
X4250000Y-13000000I1250000J0D01*
G01*
X4250000Y-3000000D02*
G75*
G02*
X1750000Y-3000000I-1250000J0D01*
G01*
X1750000Y-3000000D02*
G75*
G02*
X4250000Y-3000000I1250000J0D01*
G01*
X78250000Y-13000000D02*
G75*
G02*
X75750000Y-13000000I-1250000J0D01*
G01*
X75750000Y-13000000D02*
G75*
G02*
X78250000Y-13000000I1250000J0D01*
G01*
X78250000Y-3000000D02*
G75*
G02*
X75750000Y-3000000I-1250000J0D01*
G01*
X75750000Y-3000000D02*
G75*
G02*
X78250000Y-3000000I1250000J0D01*
G01*
D11*
X76693922Y-10869819D02*
X77027255Y-11869819D01*
X77027255Y-11869819D02*
X77360588Y-10869819D01*
X77693922Y-11488866D02*
X78455827Y-11488866D01*
X78074874Y-11869819D02*
X78074874Y-11107914D01*
D10*
X0Y0D02*
X80000000Y0D01*
X80000000Y-16000000D01*
X0Y-16000000D01*
X0Y0D01*
M02*
