%TF.GenerationSoftware,KiCad,Pcbnew,8.0.4*%
%TF.CreationDate,2024-08-12T11:23:20+02:00*%
%TF.ProjectId,MusicPlayer-PlayPCB,4d757369-6350-46c6-9179-65722d506c61,rev?*%
%TF.SameCoordinates,Original*%
%TF.FileFunction,Copper,L1,Top*%
%TF.FilePolarity,Positive*%
%FSLAX46Y46*%
G04 Gerber Fmt 4.6, Leading zero omitted, Abs format (unit mm)*
G04 Created by KiCad (PCBNEW 8.0.4) date 2024-08-12 11:23:20*
%MOMM*%
%LPD*%
G01*
G04 APERTURE LIST*
%TA.AperFunction,ComponentPad*%
%ADD10R,1.350000X1.350000*%
%TD*%
%TA.AperFunction,ComponentPad*%
%ADD11O,1.350000X1.350000*%
%TD*%
%TA.AperFunction,ComponentPad*%
%ADD12C,2.000000*%
%TD*%
%TA.AperFunction,ComponentPad*%
%ADD13O,1.600000X1.600000*%
%TD*%
%TA.AperFunction,ComponentPad*%
%ADD14C,1.600000*%
%TD*%
%TA.AperFunction,Conductor*%
%ADD15C,0.200000*%
%TD*%
G04 APERTURE END LIST*
D10*
%TO.P,1,1*%
%TO.N,Net-(R1-Pad1)*%
X71500000Y-7000000D03*
%TD*%
%TO.P,V/GND,1*%
%TO.N,GND*%
X2500000Y-7000000D03*
D11*
%TO.P,V/GND,2*%
%TO.N,+5V*%
X2500000Y-9000000D03*
%TD*%
%TO.P,V/GND,2*%
%TO.N,+5V*%
X77500000Y-9000000D03*
D10*
%TO.P,V/GND,1*%
%TO.N,GND*%
X77500000Y-7000000D03*
%TD*%
%TO.P,1,1*%
%TO.N,Net-(R3-Pad1)*%
X21500000Y-7000000D03*
%TD*%
%TO.P,2,1*%
%TO.N,Net-(R2-Pad1)*%
X46500000Y-7000000D03*
%TD*%
D12*
%TO.P,SW1,1*%
%TO.N,+5V*%
X62000000Y-11000000D03*
X62000000Y-4500000D03*
%TO.P,SW1,2*%
%TO.N,Net-(R1-Pad1)*%
X66500000Y-11000000D03*
X66500000Y-4500000D03*
%TD*%
%TO.P,SW2,1*%
%TO.N,+5V*%
X37000000Y-11000000D03*
X37000000Y-4500000D03*
%TO.P,SW2,2*%
%TO.N,Net-(R2-Pad1)*%
X41500000Y-11000000D03*
X41500000Y-4500000D03*
%TD*%
%TO.P,SW3,1*%
%TO.N,+5V*%
X12000000Y-11000000D03*
X12000000Y-4500000D03*
%TO.P,SW3,2*%
%TO.N,Net-(R3-Pad1)*%
X16500000Y-11000000D03*
X16500000Y-4500000D03*
%TD*%
D13*
%TO.P,R3,2*%
%TO.N,GND*%
X7500000Y-4000000D03*
D14*
%TO.P,R3,1*%
%TO.N,Net-(R3-Pad1)*%
X7500000Y-11620000D03*
%TD*%
%TO.P,R2,1*%
%TO.N,Net-(R2-Pad1)*%
X33000000Y-11810000D03*
D13*
%TO.P,R2,2*%
%TO.N,GND*%
X33000000Y-4190000D03*
%TD*%
D14*
%TO.P,R1,1*%
%TO.N,Net-(R1-Pad1)*%
X58000000Y-11620000D03*
D13*
%TO.P,R1,2*%
%TO.N,GND*%
X58000000Y-4000000D03*
%TD*%
D15*
%TO.N,+5V*%
X10000000Y-9000000D02*
X2500000Y-9000000D01*
X12000000Y-11000000D02*
X10000000Y-9000000D01*
%TO.N,GND*%
X5500000Y-4000000D02*
X2500000Y-7000000D01*
X7500000Y-4000000D02*
X5500000Y-4000000D01*
%TO.N,+5V*%
X64000000Y-9000000D02*
X77500000Y-9000000D01*
X62000000Y-11000000D02*
X64000000Y-9000000D01*
%TO.N,GND*%
X77500000Y-6124439D02*
X77500000Y-7000000D01*
X72875561Y-1500000D02*
X77500000Y-6124439D01*
X60500000Y-1500000D02*
X72875561Y-1500000D01*
X58000000Y-4000000D02*
X60500000Y-1500000D01*
%TO.N,+5V*%
X13300000Y-9700000D02*
X12000000Y-11000000D01*
X35700000Y-9700000D02*
X13300000Y-9700000D01*
X37000000Y-11000000D02*
X35700000Y-9700000D01*
X60700000Y-9700000D02*
X38300000Y-9700000D01*
X38300000Y-9700000D02*
X37000000Y-11000000D01*
X62000000Y-11000000D02*
X60700000Y-9700000D01*
%TO.N,GND*%
X25233660Y-4858099D02*
X32331901Y-4858099D01*
X22611093Y-2235532D02*
X25233660Y-4858099D01*
X9264468Y-2235532D02*
X22611093Y-2235532D01*
X32331901Y-4858099D02*
X33000000Y-4190000D01*
X7500000Y-4000000D02*
X9264468Y-2235532D01*
X53233660Y-4858099D02*
X57141901Y-4858099D01*
X34190000Y-3000000D02*
X51375561Y-3000000D01*
X33000000Y-4190000D02*
X34190000Y-3000000D01*
X51375561Y-3000000D02*
X53233660Y-4858099D01*
X57141901Y-4858099D02*
X58000000Y-4000000D01*
%TO.N,Net-(R3-Pad1)*%
X8299999Y-12419999D02*
X7500000Y-11620000D01*
X15080001Y-12419999D02*
X8299999Y-12419999D01*
X16500000Y-11000000D02*
X15080001Y-12419999D01*
%TO.N,Net-(R2-Pad1)*%
X33799999Y-12609999D02*
X33000000Y-11810000D01*
X39390001Y-12609999D02*
X33799999Y-12609999D01*
X41000000Y-11000000D02*
X39390001Y-12609999D01*
X41500000Y-11000000D02*
X41000000Y-11000000D01*
%TO.N,Net-(R1-Pad1)*%
X59380000Y-13000000D02*
X58000000Y-11620000D01*
X64500000Y-13000000D02*
X59380000Y-13000000D01*
X66500000Y-11000000D02*
X64500000Y-13000000D01*
%TD*%
M02*
