%TF.GenerationSoftware,KiCad,Pcbnew,8.0.4*%
%TF.CreationDate,2024-08-25T20:43:33+02:00*%
%TF.ProjectId,PlayerMusic-VolumePCB,506c6179-6572-44d7-9573-69632d566f6c,rev?*%
%TF.SameCoordinates,Original*%
%TF.FileFunction,Legend,Top*%
%TF.FilePolarity,Positive*%
%FSLAX46Y46*%
G04 Gerber Fmt 4.6, Leading zero omitted, Abs format (unit mm)*
G04 Created by KiCad (PCBNEW 8.0.4) date 2024-08-25 20:43:33*
%MOMM*%
%LPD*%
G01*
G04 APERTURE LIST*
%ADD10C,0.150000*%
%ADD11C,0.120000*%
G04 APERTURE END LIST*
D10*
X119048Y-4394819D02*
X452381Y-5394819D01*
X452381Y-5394819D02*
X785714Y-4394819D01*
X1833333Y-4347200D02*
X976191Y-5632914D01*
X2690476Y-4442438D02*
X2595238Y-4394819D01*
X2595238Y-4394819D02*
X2452381Y-4394819D01*
X2452381Y-4394819D02*
X2309524Y-4442438D01*
X2309524Y-4442438D02*
X2214286Y-4537676D01*
X2214286Y-4537676D02*
X2166667Y-4632914D01*
X2166667Y-4632914D02*
X2119048Y-4823390D01*
X2119048Y-4823390D02*
X2119048Y-4966247D01*
X2119048Y-4966247D02*
X2166667Y-5156723D01*
X2166667Y-5156723D02*
X2214286Y-5251961D01*
X2214286Y-5251961D02*
X2309524Y-5347200D01*
X2309524Y-5347200D02*
X2452381Y-5394819D01*
X2452381Y-5394819D02*
X2547619Y-5394819D01*
X2547619Y-5394819D02*
X2690476Y-5347200D01*
X2690476Y-5347200D02*
X2738095Y-5299580D01*
X2738095Y-5299580D02*
X2738095Y-4966247D01*
X2738095Y-4966247D02*
X2547619Y-4966247D01*
X3166667Y-5394819D02*
X3166667Y-4394819D01*
X3166667Y-4394819D02*
X3738095Y-5394819D01*
X3738095Y-5394819D02*
X3738095Y-4394819D01*
X4214286Y-5394819D02*
X4214286Y-4394819D01*
X4214286Y-4394819D02*
X4452381Y-4394819D01*
X4452381Y-4394819D02*
X4595238Y-4442438D01*
X4595238Y-4442438D02*
X4690476Y-4537676D01*
X4690476Y-4537676D02*
X4738095Y-4632914D01*
X4738095Y-4632914D02*
X4785714Y-4823390D01*
X4785714Y-4823390D02*
X4785714Y-4966247D01*
X4785714Y-4966247D02*
X4738095Y-5156723D01*
X4738095Y-5156723D02*
X4690476Y-5251961D01*
X4690476Y-5251961D02*
X4595238Y-5347200D01*
X4595238Y-5347200D02*
X4452381Y-5394819D01*
X4452381Y-5394819D02*
X4214286Y-5394819D01*
X23554819Y-7666666D02*
X23078628Y-7999999D01*
X23554819Y-8238094D02*
X22554819Y-8238094D01*
X22554819Y-8238094D02*
X22554819Y-7857142D01*
X22554819Y-7857142D02*
X22602438Y-7761904D01*
X22602438Y-7761904D02*
X22650057Y-7714285D01*
X22650057Y-7714285D02*
X22745295Y-7666666D01*
X22745295Y-7666666D02*
X22888152Y-7666666D01*
X22888152Y-7666666D02*
X22983390Y-7714285D01*
X22983390Y-7714285D02*
X23031009Y-7761904D01*
X23031009Y-7761904D02*
X23078628Y-7857142D01*
X23078628Y-7857142D02*
X23078628Y-8238094D01*
X23554819Y-6714285D02*
X23554819Y-7285713D01*
X23554819Y-6999999D02*
X22554819Y-6999999D01*
X22554819Y-6999999D02*
X22697676Y-7095237D01*
X22697676Y-7095237D02*
X22792914Y-7190475D01*
X22792914Y-7190475D02*
X22840533Y-7285713D01*
X28407200Y-9083332D02*
X28454819Y-8940475D01*
X28454819Y-8940475D02*
X28454819Y-8702380D01*
X28454819Y-8702380D02*
X28407200Y-8607142D01*
X28407200Y-8607142D02*
X28359580Y-8559523D01*
X28359580Y-8559523D02*
X28264342Y-8511904D01*
X28264342Y-8511904D02*
X28169104Y-8511904D01*
X28169104Y-8511904D02*
X28073866Y-8559523D01*
X28073866Y-8559523D02*
X28026247Y-8607142D01*
X28026247Y-8607142D02*
X27978628Y-8702380D01*
X27978628Y-8702380D02*
X27931009Y-8892856D01*
X27931009Y-8892856D02*
X27883390Y-8988094D01*
X27883390Y-8988094D02*
X27835771Y-9035713D01*
X27835771Y-9035713D02*
X27740533Y-9083332D01*
X27740533Y-9083332D02*
X27645295Y-9083332D01*
X27645295Y-9083332D02*
X27550057Y-9035713D01*
X27550057Y-9035713D02*
X27502438Y-8988094D01*
X27502438Y-8988094D02*
X27454819Y-8892856D01*
X27454819Y-8892856D02*
X27454819Y-8654761D01*
X27454819Y-8654761D02*
X27502438Y-8511904D01*
X27454819Y-8178570D02*
X28454819Y-7940475D01*
X28454819Y-7940475D02*
X27740533Y-7749999D01*
X27740533Y-7749999D02*
X28454819Y-7559523D01*
X28454819Y-7559523D02*
X27454819Y-7321428D01*
X28454819Y-6416666D02*
X28454819Y-6988094D01*
X28454819Y-6702380D02*
X27454819Y-6702380D01*
X27454819Y-6702380D02*
X27597676Y-6797618D01*
X27597676Y-6797618D02*
X27692914Y-6892856D01*
X27692914Y-6892856D02*
X27740533Y-6988094D01*
X36785714Y-7454819D02*
X36214286Y-7454819D01*
X36500000Y-7454819D02*
X36500000Y-6454819D01*
X36500000Y-6454819D02*
X36404762Y-6597676D01*
X36404762Y-6597676D02*
X36309524Y-6692914D01*
X36309524Y-6692914D02*
X36214286Y-6740533D01*
X10407200Y-9083332D02*
X10454819Y-8940475D01*
X10454819Y-8940475D02*
X10454819Y-8702380D01*
X10454819Y-8702380D02*
X10407200Y-8607142D01*
X10407200Y-8607142D02*
X10359580Y-8559523D01*
X10359580Y-8559523D02*
X10264342Y-8511904D01*
X10264342Y-8511904D02*
X10169104Y-8511904D01*
X10169104Y-8511904D02*
X10073866Y-8559523D01*
X10073866Y-8559523D02*
X10026247Y-8607142D01*
X10026247Y-8607142D02*
X9978628Y-8702380D01*
X9978628Y-8702380D02*
X9931009Y-8892856D01*
X9931009Y-8892856D02*
X9883390Y-8988094D01*
X9883390Y-8988094D02*
X9835771Y-9035713D01*
X9835771Y-9035713D02*
X9740533Y-9083332D01*
X9740533Y-9083332D02*
X9645295Y-9083332D01*
X9645295Y-9083332D02*
X9550057Y-9035713D01*
X9550057Y-9035713D02*
X9502438Y-8988094D01*
X9502438Y-8988094D02*
X9454819Y-8892856D01*
X9454819Y-8892856D02*
X9454819Y-8654761D01*
X9454819Y-8654761D02*
X9502438Y-8511904D01*
X9454819Y-8178570D02*
X10454819Y-7940475D01*
X10454819Y-7940475D02*
X9740533Y-7749999D01*
X9740533Y-7749999D02*
X10454819Y-7559523D01*
X10454819Y-7559523D02*
X9454819Y-7321428D01*
X9550057Y-6988094D02*
X9502438Y-6940475D01*
X9502438Y-6940475D02*
X9454819Y-6845237D01*
X9454819Y-6845237D02*
X9454819Y-6607142D01*
X9454819Y-6607142D02*
X9502438Y-6511904D01*
X9502438Y-6511904D02*
X9550057Y-6464285D01*
X9550057Y-6464285D02*
X9645295Y-6416666D01*
X9645295Y-6416666D02*
X9740533Y-6416666D01*
X9740533Y-6416666D02*
X9883390Y-6464285D01*
X9883390Y-6464285D02*
X10454819Y-7035713D01*
X10454819Y-7035713D02*
X10454819Y-6416666D01*
X5889818Y-8166666D02*
X5413627Y-8499999D01*
X5889818Y-8738094D02*
X4889818Y-8738094D01*
X4889818Y-8738094D02*
X4889818Y-8357142D01*
X4889818Y-8357142D02*
X4937437Y-8261904D01*
X4937437Y-8261904D02*
X4985056Y-8214285D01*
X4985056Y-8214285D02*
X5080294Y-8166666D01*
X5080294Y-8166666D02*
X5223151Y-8166666D01*
X5223151Y-8166666D02*
X5318389Y-8214285D01*
X5318389Y-8214285D02*
X5366008Y-8261904D01*
X5366008Y-8261904D02*
X5413627Y-8357142D01*
X5413627Y-8357142D02*
X5413627Y-8738094D01*
X4985056Y-7785713D02*
X4937437Y-7738094D01*
X4937437Y-7738094D02*
X4889818Y-7642856D01*
X4889818Y-7642856D02*
X4889818Y-7404761D01*
X4889818Y-7404761D02*
X4937437Y-7309523D01*
X4937437Y-7309523D02*
X4985056Y-7261904D01*
X4985056Y-7261904D02*
X5080294Y-7214285D01*
X5080294Y-7214285D02*
X5175532Y-7214285D01*
X5175532Y-7214285D02*
X5318389Y-7261904D01*
X5318389Y-7261904D02*
X5889818Y-7833332D01*
X5889818Y-7833332D02*
X5889818Y-7214285D01*
X16714286Y-6550057D02*
X16761905Y-6502438D01*
X16761905Y-6502438D02*
X16857143Y-6454819D01*
X16857143Y-6454819D02*
X17095238Y-6454819D01*
X17095238Y-6454819D02*
X17190476Y-6502438D01*
X17190476Y-6502438D02*
X17238095Y-6550057D01*
X17238095Y-6550057D02*
X17285714Y-6645295D01*
X17285714Y-6645295D02*
X17285714Y-6740533D01*
X17285714Y-6740533D02*
X17238095Y-6883390D01*
X17238095Y-6883390D02*
X16666667Y-7454819D01*
X16666667Y-7454819D02*
X17285714Y-7454819D01*
X42119048Y-4394819D02*
X42452381Y-5394819D01*
X42452381Y-5394819D02*
X42785714Y-4394819D01*
X43833333Y-4347200D02*
X42976191Y-5632914D01*
X44690476Y-4442438D02*
X44595238Y-4394819D01*
X44595238Y-4394819D02*
X44452381Y-4394819D01*
X44452381Y-4394819D02*
X44309524Y-4442438D01*
X44309524Y-4442438D02*
X44214286Y-4537676D01*
X44214286Y-4537676D02*
X44166667Y-4632914D01*
X44166667Y-4632914D02*
X44119048Y-4823390D01*
X44119048Y-4823390D02*
X44119048Y-4966247D01*
X44119048Y-4966247D02*
X44166667Y-5156723D01*
X44166667Y-5156723D02*
X44214286Y-5251961D01*
X44214286Y-5251961D02*
X44309524Y-5347200D01*
X44309524Y-5347200D02*
X44452381Y-5394819D01*
X44452381Y-5394819D02*
X44547619Y-5394819D01*
X44547619Y-5394819D02*
X44690476Y-5347200D01*
X44690476Y-5347200D02*
X44738095Y-5299580D01*
X44738095Y-5299580D02*
X44738095Y-4966247D01*
X44738095Y-4966247D02*
X44547619Y-4966247D01*
X45166667Y-5394819D02*
X45166667Y-4394819D01*
X45166667Y-4394819D02*
X45738095Y-5394819D01*
X45738095Y-5394819D02*
X45738095Y-4394819D01*
X46214286Y-5394819D02*
X46214286Y-4394819D01*
X46214286Y-4394819D02*
X46452381Y-4394819D01*
X46452381Y-4394819D02*
X46595238Y-4442438D01*
X46595238Y-4442438D02*
X46690476Y-4537676D01*
X46690476Y-4537676D02*
X46738095Y-4632914D01*
X46738095Y-4632914D02*
X46785714Y-4823390D01*
X46785714Y-4823390D02*
X46785714Y-4966247D01*
X46785714Y-4966247D02*
X46738095Y-5156723D01*
X46738095Y-5156723D02*
X46690476Y-5251961D01*
X46690476Y-5251961D02*
X46595238Y-5347200D01*
X46595238Y-5347200D02*
X46452381Y-5394819D01*
X46452381Y-5394819D02*
X46214286Y-5394819D01*
D11*
%TO.C,V/GND*%
X3560000Y-8000000D02*
X3560000Y-10060000D01*
X1440000Y-10060000D02*
X3560000Y-10060000D01*
X1440000Y-8000000D02*
X3560000Y-8000000D01*
X1440000Y-8000000D02*
X1440000Y-10060000D01*
X1440000Y-7000000D02*
X1440000Y-5940000D01*
X1440000Y-5940000D02*
X2500000Y-5940000D01*
%TO.C,R1*%
X24130000Y-4540000D02*
X24460000Y-4540000D01*
X24130000Y-11080000D02*
X24130000Y-4540000D01*
X24460000Y-11080000D02*
X24130000Y-11080000D01*
X26540000Y-11080000D02*
X26870000Y-11080000D01*
X26870000Y-4540000D02*
X26540000Y-4540000D01*
X26870000Y-11080000D02*
X26870000Y-4540000D01*
%TO.C,SW1*%
X29000000Y-5500000D02*
X29000000Y-10000000D01*
X31500000Y-11250000D02*
X33000000Y-11250000D01*
X33000000Y-4250000D02*
X31500000Y-4250000D01*
X35500000Y-10000000D02*
X35500000Y-5500000D01*
%TO.C,1*%
X37940000Y-5940000D02*
X39000000Y-5940000D01*
X37940000Y-7000000D02*
X37940000Y-5940000D01*
X37940000Y-8000000D02*
X37940000Y-8060000D01*
X37940000Y-8000000D02*
X40060000Y-8000000D01*
X37940000Y-8060000D02*
X40060000Y-8060000D01*
X40060000Y-8000000D02*
X40060000Y-8060000D01*
%TO.C,SW2*%
X11000000Y-5500000D02*
X11000000Y-10000000D01*
X13500000Y-11250000D02*
X15000000Y-11250000D01*
X15000000Y-4250000D02*
X13500000Y-4250000D01*
X17500000Y-10000000D02*
X17500000Y-5500000D01*
%TO.C,R2*%
X9174999Y-11270000D02*
X9174999Y-4730000D01*
X9174999Y-4730000D02*
X8844999Y-4730000D01*
X8844999Y-11270000D02*
X9174999Y-11270000D01*
X6764999Y-11270000D02*
X6434999Y-11270000D01*
X6434999Y-11270000D02*
X6434999Y-4730000D01*
X6434999Y-4730000D02*
X6764999Y-4730000D01*
%TO.C,2*%
X18440000Y-5940000D02*
X19500000Y-5940000D01*
X18440000Y-7000000D02*
X18440000Y-5940000D01*
X18440000Y-8000000D02*
X18440000Y-8060000D01*
X18440000Y-8000000D02*
X20560000Y-8000000D01*
X18440000Y-8060000D02*
X20560000Y-8060000D01*
X20560000Y-8000000D02*
X20560000Y-8060000D01*
%TO.C,V/GND*%
X43440000Y-5940000D02*
X44500000Y-5940000D01*
X43440000Y-7000000D02*
X43440000Y-5940000D01*
X43440000Y-8000000D02*
X43440000Y-10060000D01*
X43440000Y-8000000D02*
X45560000Y-8000000D01*
X43440000Y-10060000D02*
X45560000Y-10060000D01*
X45560000Y-8000000D02*
X45560000Y-10060000D01*
%TD*%
M02*
