%TF.GenerationSoftware,KiCad,Pcbnew,8.0.4*%
%TF.CreationDate,2024-08-25T20:44:00+02:00*%
%TF.ProjectId,PlayerMusic-VolumePCB,506c6179-6572-44d7-9573-69632d566f6c,rev?*%
%TF.SameCoordinates,Original*%
%TF.FileFunction,Drillmap*%
%TF.FilePolarity,Positive*%
%FSLAX45Y45*%
G04 Gerber Fmt 4.5, Leading zero omitted, Abs format (unit mm)*
G04 Created by KiCad (PCBNEW 8.0.4) date 2024-08-25 20:44:00*
%MOMM*%
%LPD*%
G01*
G04 APERTURE LIST*
%ADD10C,0.050000*%
%ADD11C,0.200000*%
G04 APERTURE END LIST*
D10*
X0Y0D02*
X4750000Y0D01*
X4750000Y-1600000D01*
X0Y-1600000D01*
X0Y0D01*
X425000Y-1300000D02*
G75*
G02*
X175000Y-1300000I-125000J0D01*
G01*
X175000Y-1300000D02*
G75*
G02*
X425000Y-1300000I125000J0D01*
G01*
X4425000Y-1300000D02*
G75*
G02*
X4175000Y-1300000I-125000J0D01*
G01*
X4175000Y-1300000D02*
G75*
G02*
X4425000Y-1300000I125000J0D01*
G01*
X425000Y-300000D02*
G75*
G02*
X175000Y-300000I-125000J0D01*
G01*
X175000Y-300000D02*
G75*
G02*
X425000Y-300000I125000J0D01*
G01*
X4425000Y-300000D02*
G75*
G02*
X4175000Y-300000I-125000J0D01*
G01*
X4175000Y-300000D02*
G75*
G02*
X4425000Y-300000I125000J0D01*
G01*
D11*
X258277Y-1913984D02*
X258277Y-1713984D01*
X258277Y-1713984D02*
X305896Y-1713984D01*
X305896Y-1713984D02*
X334467Y-1723508D01*
X334467Y-1723508D02*
X353515Y-1742555D01*
X353515Y-1742555D02*
X363039Y-1761603D01*
X363039Y-1761603D02*
X372562Y-1799698D01*
X372562Y-1799698D02*
X372562Y-1828269D01*
X372562Y-1828269D02*
X363039Y-1866365D01*
X363039Y-1866365D02*
X353515Y-1885412D01*
X353515Y-1885412D02*
X334467Y-1904460D01*
X334467Y-1904460D02*
X305896Y-1913984D01*
X305896Y-1913984D02*
X258277Y-1913984D01*
X458277Y-1913984D02*
X458277Y-1780650D01*
X458277Y-1818746D02*
X467801Y-1799698D01*
X467801Y-1799698D02*
X477324Y-1790174D01*
X477324Y-1790174D02*
X496372Y-1780650D01*
X496372Y-1780650D02*
X515420Y-1780650D01*
X582086Y-1913984D02*
X582086Y-1780650D01*
X582086Y-1713984D02*
X572563Y-1723508D01*
X572563Y-1723508D02*
X582086Y-1733031D01*
X582086Y-1733031D02*
X591610Y-1723508D01*
X591610Y-1723508D02*
X582086Y-1713984D01*
X582086Y-1713984D02*
X582086Y-1733031D01*
X705896Y-1913984D02*
X686848Y-1904460D01*
X686848Y-1904460D02*
X677324Y-1885412D01*
X677324Y-1885412D02*
X677324Y-1713984D01*
X810658Y-1913984D02*
X791610Y-1904460D01*
X791610Y-1904460D02*
X782086Y-1885412D01*
X782086Y-1885412D02*
X782086Y-1713984D01*
X1039229Y-1913984D02*
X1039229Y-1713984D01*
X1039229Y-1713984D02*
X1105896Y-1856841D01*
X1105896Y-1856841D02*
X1172563Y-1713984D01*
X1172563Y-1713984D02*
X1172563Y-1913984D01*
X1353515Y-1913984D02*
X1353515Y-1809222D01*
X1353515Y-1809222D02*
X1343991Y-1790174D01*
X1343991Y-1790174D02*
X1324944Y-1780650D01*
X1324944Y-1780650D02*
X1286848Y-1780650D01*
X1286848Y-1780650D02*
X1267801Y-1790174D01*
X1353515Y-1904460D02*
X1334467Y-1913984D01*
X1334467Y-1913984D02*
X1286848Y-1913984D01*
X1286848Y-1913984D02*
X1267801Y-1904460D01*
X1267801Y-1904460D02*
X1258277Y-1885412D01*
X1258277Y-1885412D02*
X1258277Y-1866365D01*
X1258277Y-1866365D02*
X1267801Y-1847317D01*
X1267801Y-1847317D02*
X1286848Y-1837793D01*
X1286848Y-1837793D02*
X1334467Y-1837793D01*
X1334467Y-1837793D02*
X1353515Y-1828269D01*
X1448753Y-1780650D02*
X1448753Y-1980650D01*
X1448753Y-1790174D02*
X1467801Y-1780650D01*
X1467801Y-1780650D02*
X1505896Y-1780650D01*
X1505896Y-1780650D02*
X1524943Y-1790174D01*
X1524943Y-1790174D02*
X1534467Y-1799698D01*
X1534467Y-1799698D02*
X1543991Y-1818746D01*
X1543991Y-1818746D02*
X1543991Y-1875888D01*
X1543991Y-1875888D02*
X1534467Y-1894936D01*
X1534467Y-1894936D02*
X1524943Y-1904460D01*
X1524943Y-1904460D02*
X1505896Y-1913984D01*
X1505896Y-1913984D02*
X1467801Y-1913984D01*
X1467801Y-1913984D02*
X1448753Y-1904460D01*
X1629705Y-1894936D02*
X1639229Y-1904460D01*
X1639229Y-1904460D02*
X1629705Y-1913984D01*
X1629705Y-1913984D02*
X1620182Y-1904460D01*
X1620182Y-1904460D02*
X1629705Y-1894936D01*
X1629705Y-1894936D02*
X1629705Y-1913984D01*
X1629705Y-1790174D02*
X1639229Y-1799698D01*
X1639229Y-1799698D02*
X1629705Y-1809222D01*
X1629705Y-1809222D02*
X1620182Y-1799698D01*
X1620182Y-1799698D02*
X1629705Y-1790174D01*
X1629705Y-1790174D02*
X1629705Y-1809222D01*
M02*
