%TF.GenerationSoftware,KiCad,Pcbnew,8.0.4*%
%TF.CreationDate,2024-08-25T20:44:00+02:00*%
%TF.ProjectId,PlayerMusic-VolumePCB,506c6179-6572-44d7-9573-69632d566f6c,rev?*%
%TF.SameCoordinates,Original*%
%TF.FileFunction,Drillmap*%
%TF.FilePolarity,Positive*%
%FSLAX45Y45*%
G04 Gerber Fmt 4.5, Leading zero omitted, Abs format (unit mm)*
G04 Created by KiCad (PCBNEW 8.0.4) date 2024-08-25 20:44:00*
%MOMM*%
%LPD*%
G01*
G04 APERTURE LIST*
%ADD10C,0.050000*%
%ADD11C,0.200000*%
%ADD12C,0.100000*%
%ADD13C,0.110000*%
G04 APERTURE END LIST*
D10*
X0Y0D02*
X4750000Y0D01*
X4750000Y-1600000D01*
X0Y-1600000D01*
X0Y0D01*
X425000Y-1300000D02*
G75*
G02*
X175000Y-1300000I-125000J0D01*
G01*
X175000Y-1300000D02*
G75*
G02*
X425000Y-1300000I125000J0D01*
G01*
X4425000Y-1300000D02*
G75*
G02*
X4175000Y-1300000I-125000J0D01*
G01*
X4175000Y-1300000D02*
G75*
G02*
X4425000Y-1300000I125000J0D01*
G01*
X425000Y-300000D02*
G75*
G02*
X175000Y-300000I-125000J0D01*
G01*
X175000Y-300000D02*
G75*
G02*
X425000Y-300000I125000J0D01*
G01*
X4425000Y-300000D02*
G75*
G02*
X4175000Y-300000I-125000J0D01*
G01*
X4175000Y-300000D02*
G75*
G02*
X4425000Y-300000I125000J0D01*
G01*
D11*
D12*
X210000Y-660000D02*
X290000Y-740000D01*
X290000Y-660000D02*
X210000Y-740000D01*
X210000Y-860000D02*
X290000Y-940000D01*
X290000Y-860000D02*
X210000Y-940000D01*
X740500Y-379000D02*
X820500Y-459000D01*
X820500Y-379000D02*
X740500Y-459000D01*
X740500Y-1141000D02*
X820500Y-1221000D01*
X820500Y-1141000D02*
X740500Y-1221000D01*
X1910000Y-660000D02*
X1990000Y-740000D01*
X1990000Y-660000D02*
X1910000Y-740000D01*
X2510000Y-360000D02*
X2590000Y-440000D01*
X2590000Y-360000D02*
X2510000Y-440000D01*
X2510000Y-1122000D02*
X2590000Y-1202000D01*
X2590000Y-1122000D02*
X2510000Y-1202000D01*
X3860000Y-660000D02*
X3940000Y-740000D01*
X3940000Y-660000D02*
X3860000Y-740000D01*
X4410000Y-660000D02*
X4490000Y-740000D01*
X4490000Y-660000D02*
X4410000Y-740000D01*
X4410000Y-860000D02*
X4490000Y-940000D01*
X4490000Y-860000D02*
X4410000Y-940000D01*
D13*
X1255000Y-450000D02*
G75*
G02*
X1145000Y-450000I-55000J0D01*
G01*
X1145000Y-450000D02*
G75*
G02*
X1255000Y-450000I55000J0D01*
G01*
X1255000Y-1100000D02*
G75*
G02*
X1145000Y-1100000I-55000J0D01*
G01*
X1145000Y-1100000D02*
G75*
G02*
X1255000Y-1100000I55000J0D01*
G01*
X1705000Y-450000D02*
G75*
G02*
X1595000Y-450000I-55000J0D01*
G01*
X1595000Y-450000D02*
G75*
G02*
X1705000Y-450000I55000J0D01*
G01*
X1705000Y-1100000D02*
G75*
G02*
X1595000Y-1100000I-55000J0D01*
G01*
X1595000Y-1100000D02*
G75*
G02*
X1705000Y-1100000I55000J0D01*
G01*
X3055000Y-450000D02*
G75*
G02*
X2945000Y-450000I-55000J0D01*
G01*
X2945000Y-450000D02*
G75*
G02*
X3055000Y-450000I55000J0D01*
G01*
X3055000Y-1100000D02*
G75*
G02*
X2945000Y-1100000I-55000J0D01*
G01*
X2945000Y-1100000D02*
G75*
G02*
X3055000Y-1100000I55000J0D01*
G01*
X3505000Y-450000D02*
G75*
G02*
X3395000Y-450000I-55000J0D01*
G01*
X3395000Y-450000D02*
G75*
G02*
X3505000Y-450000I55000J0D01*
G01*
X3505000Y-1100000D02*
G75*
G02*
X3395000Y-1100000I-55000J0D01*
G01*
X3395000Y-1100000D02*
G75*
G02*
X3505000Y-1100000I55000J0D01*
G01*
D11*
X258277Y-1913984D02*
X258277Y-1713984D01*
X258277Y-1713984D02*
X305896Y-1713984D01*
X305896Y-1713984D02*
X334467Y-1723508D01*
X334467Y-1723508D02*
X353515Y-1742555D01*
X353515Y-1742555D02*
X363039Y-1761603D01*
X363039Y-1761603D02*
X372562Y-1799698D01*
X372562Y-1799698D02*
X372562Y-1828269D01*
X372562Y-1828269D02*
X363039Y-1866365D01*
X363039Y-1866365D02*
X353515Y-1885412D01*
X353515Y-1885412D02*
X334467Y-1904460D01*
X334467Y-1904460D02*
X305896Y-1913984D01*
X305896Y-1913984D02*
X258277Y-1913984D01*
X458277Y-1913984D02*
X458277Y-1780650D01*
X458277Y-1818746D02*
X467801Y-1799698D01*
X467801Y-1799698D02*
X477324Y-1790174D01*
X477324Y-1790174D02*
X496372Y-1780650D01*
X496372Y-1780650D02*
X515420Y-1780650D01*
X582086Y-1913984D02*
X582086Y-1780650D01*
X582086Y-1713984D02*
X572563Y-1723508D01*
X572563Y-1723508D02*
X582086Y-1733031D01*
X582086Y-1733031D02*
X591610Y-1723508D01*
X591610Y-1723508D02*
X582086Y-1713984D01*
X582086Y-1713984D02*
X582086Y-1733031D01*
X705896Y-1913984D02*
X686848Y-1904460D01*
X686848Y-1904460D02*
X677324Y-1885412D01*
X677324Y-1885412D02*
X677324Y-1713984D01*
X810658Y-1913984D02*
X791610Y-1904460D01*
X791610Y-1904460D02*
X782086Y-1885412D01*
X782086Y-1885412D02*
X782086Y-1713984D01*
X1039229Y-1913984D02*
X1039229Y-1713984D01*
X1039229Y-1713984D02*
X1105896Y-1856841D01*
X1105896Y-1856841D02*
X1172563Y-1713984D01*
X1172563Y-1713984D02*
X1172563Y-1913984D01*
X1353515Y-1913984D02*
X1353515Y-1809222D01*
X1353515Y-1809222D02*
X1343991Y-1790174D01*
X1343991Y-1790174D02*
X1324944Y-1780650D01*
X1324944Y-1780650D02*
X1286848Y-1780650D01*
X1286848Y-1780650D02*
X1267801Y-1790174D01*
X1353515Y-1904460D02*
X1334467Y-1913984D01*
X1334467Y-1913984D02*
X1286848Y-1913984D01*
X1286848Y-1913984D02*
X1267801Y-1904460D01*
X1267801Y-1904460D02*
X1258277Y-1885412D01*
X1258277Y-1885412D02*
X1258277Y-1866365D01*
X1258277Y-1866365D02*
X1267801Y-1847317D01*
X1267801Y-1847317D02*
X1286848Y-1837793D01*
X1286848Y-1837793D02*
X1334467Y-1837793D01*
X1334467Y-1837793D02*
X1353515Y-1828269D01*
X1448753Y-1780650D02*
X1448753Y-1980650D01*
X1448753Y-1790174D02*
X1467801Y-1780650D01*
X1467801Y-1780650D02*
X1505896Y-1780650D01*
X1505896Y-1780650D02*
X1524943Y-1790174D01*
X1524943Y-1790174D02*
X1534467Y-1799698D01*
X1534467Y-1799698D02*
X1543991Y-1818746D01*
X1543991Y-1818746D02*
X1543991Y-1875888D01*
X1543991Y-1875888D02*
X1534467Y-1894936D01*
X1534467Y-1894936D02*
X1524943Y-1904460D01*
X1524943Y-1904460D02*
X1505896Y-1913984D01*
X1505896Y-1913984D02*
X1467801Y-1913984D01*
X1467801Y-1913984D02*
X1448753Y-1904460D01*
X1629705Y-1894936D02*
X1639229Y-1904460D01*
X1639229Y-1904460D02*
X1629705Y-1913984D01*
X1629705Y-1913984D02*
X1620182Y-1904460D01*
X1620182Y-1904460D02*
X1629705Y-1894936D01*
X1629705Y-1894936D02*
X1629705Y-1913984D01*
X1629705Y-1790174D02*
X1639229Y-1799698D01*
X1639229Y-1799698D02*
X1629705Y-1809222D01*
X1629705Y-1809222D02*
X1620182Y-1799698D01*
X1620182Y-1799698D02*
X1629705Y-1790174D01*
X1629705Y-1790174D02*
X1629705Y-1809222D01*
D12*
X-82500Y-2202500D02*
X-2500Y-2282500D01*
X-2500Y-2202500D02*
X-82500Y-2282500D01*
D11*
X296372Y-2133984D02*
X315420Y-2133984D01*
X315420Y-2133984D02*
X334467Y-2143508D01*
X334467Y-2143508D02*
X343991Y-2153031D01*
X343991Y-2153031D02*
X353515Y-2172079D01*
X353515Y-2172079D02*
X363039Y-2210174D01*
X363039Y-2210174D02*
X363039Y-2257793D01*
X363039Y-2257793D02*
X353515Y-2295889D01*
X353515Y-2295889D02*
X343991Y-2314936D01*
X343991Y-2314936D02*
X334467Y-2324460D01*
X334467Y-2324460D02*
X315420Y-2333984D01*
X315420Y-2333984D02*
X296372Y-2333984D01*
X296372Y-2333984D02*
X277324Y-2324460D01*
X277324Y-2324460D02*
X267801Y-2314936D01*
X267801Y-2314936D02*
X258277Y-2295889D01*
X258277Y-2295889D02*
X248753Y-2257793D01*
X248753Y-2257793D02*
X248753Y-2210174D01*
X248753Y-2210174D02*
X258277Y-2172079D01*
X258277Y-2172079D02*
X267801Y-2153031D01*
X267801Y-2153031D02*
X277324Y-2143508D01*
X277324Y-2143508D02*
X296372Y-2133984D01*
X448753Y-2314936D02*
X458277Y-2324460D01*
X458277Y-2324460D02*
X448753Y-2333984D01*
X448753Y-2333984D02*
X439229Y-2324460D01*
X439229Y-2324460D02*
X448753Y-2314936D01*
X448753Y-2314936D02*
X448753Y-2333984D01*
X572563Y-2219698D02*
X553515Y-2210174D01*
X553515Y-2210174D02*
X543991Y-2200650D01*
X543991Y-2200650D02*
X534467Y-2181603D01*
X534467Y-2181603D02*
X534467Y-2172079D01*
X534467Y-2172079D02*
X543991Y-2153031D01*
X543991Y-2153031D02*
X553515Y-2143508D01*
X553515Y-2143508D02*
X572563Y-2133984D01*
X572563Y-2133984D02*
X610658Y-2133984D01*
X610658Y-2133984D02*
X629705Y-2143508D01*
X629705Y-2143508D02*
X639229Y-2153031D01*
X639229Y-2153031D02*
X648753Y-2172079D01*
X648753Y-2172079D02*
X648753Y-2181603D01*
X648753Y-2181603D02*
X639229Y-2200650D01*
X639229Y-2200650D02*
X629705Y-2210174D01*
X629705Y-2210174D02*
X610658Y-2219698D01*
X610658Y-2219698D02*
X572563Y-2219698D01*
X572563Y-2219698D02*
X553515Y-2229222D01*
X553515Y-2229222D02*
X543991Y-2238746D01*
X543991Y-2238746D02*
X534467Y-2257793D01*
X534467Y-2257793D02*
X534467Y-2295889D01*
X534467Y-2295889D02*
X543991Y-2314936D01*
X543991Y-2314936D02*
X553515Y-2324460D01*
X553515Y-2324460D02*
X572563Y-2333984D01*
X572563Y-2333984D02*
X610658Y-2333984D01*
X610658Y-2333984D02*
X629705Y-2324460D01*
X629705Y-2324460D02*
X639229Y-2314936D01*
X639229Y-2314936D02*
X648753Y-2295889D01*
X648753Y-2295889D02*
X648753Y-2257793D01*
X648753Y-2257793D02*
X639229Y-2238746D01*
X639229Y-2238746D02*
X629705Y-2229222D01*
X629705Y-2229222D02*
X610658Y-2219698D01*
X772562Y-2133984D02*
X791610Y-2133984D01*
X791610Y-2133984D02*
X810658Y-2143508D01*
X810658Y-2143508D02*
X820182Y-2153031D01*
X820182Y-2153031D02*
X829705Y-2172079D01*
X829705Y-2172079D02*
X839229Y-2210174D01*
X839229Y-2210174D02*
X839229Y-2257793D01*
X839229Y-2257793D02*
X829705Y-2295889D01*
X829705Y-2295889D02*
X820182Y-2314936D01*
X820182Y-2314936D02*
X810658Y-2324460D01*
X810658Y-2324460D02*
X791610Y-2333984D01*
X791610Y-2333984D02*
X772562Y-2333984D01*
X772562Y-2333984D02*
X753515Y-2324460D01*
X753515Y-2324460D02*
X743991Y-2314936D01*
X743991Y-2314936D02*
X734467Y-2295889D01*
X734467Y-2295889D02*
X724943Y-2257793D01*
X724943Y-2257793D02*
X724943Y-2210174D01*
X724943Y-2210174D02*
X734467Y-2172079D01*
X734467Y-2172079D02*
X743991Y-2153031D01*
X743991Y-2153031D02*
X753515Y-2143508D01*
X753515Y-2143508D02*
X772562Y-2133984D01*
X963039Y-2133984D02*
X982086Y-2133984D01*
X982086Y-2133984D02*
X1001134Y-2143508D01*
X1001134Y-2143508D02*
X1010658Y-2153031D01*
X1010658Y-2153031D02*
X1020182Y-2172079D01*
X1020182Y-2172079D02*
X1029705Y-2210174D01*
X1029705Y-2210174D02*
X1029705Y-2257793D01*
X1029705Y-2257793D02*
X1020182Y-2295889D01*
X1020182Y-2295889D02*
X1010658Y-2314936D01*
X1010658Y-2314936D02*
X1001134Y-2324460D01*
X1001134Y-2324460D02*
X982086Y-2333984D01*
X982086Y-2333984D02*
X963039Y-2333984D01*
X963039Y-2333984D02*
X943991Y-2324460D01*
X943991Y-2324460D02*
X934467Y-2314936D01*
X934467Y-2314936D02*
X924943Y-2295889D01*
X924943Y-2295889D02*
X915420Y-2257793D01*
X915420Y-2257793D02*
X915420Y-2210174D01*
X915420Y-2210174D02*
X924943Y-2172079D01*
X924943Y-2172079D02*
X934467Y-2153031D01*
X934467Y-2153031D02*
X943991Y-2143508D01*
X943991Y-2143508D02*
X963039Y-2133984D01*
X1115420Y-2333984D02*
X1115420Y-2200650D01*
X1115420Y-2219698D02*
X1124944Y-2210174D01*
X1124944Y-2210174D02*
X1143991Y-2200650D01*
X1143991Y-2200650D02*
X1172563Y-2200650D01*
X1172563Y-2200650D02*
X1191610Y-2210174D01*
X1191610Y-2210174D02*
X1201134Y-2229222D01*
X1201134Y-2229222D02*
X1201134Y-2333984D01*
X1201134Y-2229222D02*
X1210658Y-2210174D01*
X1210658Y-2210174D02*
X1229705Y-2200650D01*
X1229705Y-2200650D02*
X1258277Y-2200650D01*
X1258277Y-2200650D02*
X1277325Y-2210174D01*
X1277325Y-2210174D02*
X1286848Y-2229222D01*
X1286848Y-2229222D02*
X1286848Y-2333984D01*
X1382086Y-2333984D02*
X1382086Y-2200650D01*
X1382086Y-2219698D02*
X1391610Y-2210174D01*
X1391610Y-2210174D02*
X1410658Y-2200650D01*
X1410658Y-2200650D02*
X1439229Y-2200650D01*
X1439229Y-2200650D02*
X1458277Y-2210174D01*
X1458277Y-2210174D02*
X1467801Y-2229222D01*
X1467801Y-2229222D02*
X1467801Y-2333984D01*
X1467801Y-2229222D02*
X1477324Y-2210174D01*
X1477324Y-2210174D02*
X1496372Y-2200650D01*
X1496372Y-2200650D02*
X1524943Y-2200650D01*
X1524943Y-2200650D02*
X1543991Y-2210174D01*
X1543991Y-2210174D02*
X1553515Y-2229222D01*
X1553515Y-2229222D02*
X1553515Y-2333984D01*
X1943991Y-2124460D02*
X1772563Y-2381603D01*
X2201134Y-2133984D02*
X2220182Y-2133984D01*
X2220182Y-2133984D02*
X2239229Y-2143508D01*
X2239229Y-2143508D02*
X2248753Y-2153031D01*
X2248753Y-2153031D02*
X2258277Y-2172079D01*
X2258277Y-2172079D02*
X2267801Y-2210174D01*
X2267801Y-2210174D02*
X2267801Y-2257793D01*
X2267801Y-2257793D02*
X2258277Y-2295889D01*
X2258277Y-2295889D02*
X2248753Y-2314936D01*
X2248753Y-2314936D02*
X2239229Y-2324460D01*
X2239229Y-2324460D02*
X2220182Y-2333984D01*
X2220182Y-2333984D02*
X2201134Y-2333984D01*
X2201134Y-2333984D02*
X2182087Y-2324460D01*
X2182087Y-2324460D02*
X2172563Y-2314936D01*
X2172563Y-2314936D02*
X2163039Y-2295889D01*
X2163039Y-2295889D02*
X2153515Y-2257793D01*
X2153515Y-2257793D02*
X2153515Y-2210174D01*
X2153515Y-2210174D02*
X2163039Y-2172079D01*
X2163039Y-2172079D02*
X2172563Y-2153031D01*
X2172563Y-2153031D02*
X2182087Y-2143508D01*
X2182087Y-2143508D02*
X2201134Y-2133984D01*
X2353515Y-2314936D02*
X2363039Y-2324460D01*
X2363039Y-2324460D02*
X2353515Y-2333984D01*
X2353515Y-2333984D02*
X2343991Y-2324460D01*
X2343991Y-2324460D02*
X2353515Y-2314936D01*
X2353515Y-2314936D02*
X2353515Y-2333984D01*
X2486848Y-2133984D02*
X2505896Y-2133984D01*
X2505896Y-2133984D02*
X2524944Y-2143508D01*
X2524944Y-2143508D02*
X2534468Y-2153031D01*
X2534468Y-2153031D02*
X2543991Y-2172079D01*
X2543991Y-2172079D02*
X2553515Y-2210174D01*
X2553515Y-2210174D02*
X2553515Y-2257793D01*
X2553515Y-2257793D02*
X2543991Y-2295889D01*
X2543991Y-2295889D02*
X2534468Y-2314936D01*
X2534468Y-2314936D02*
X2524944Y-2324460D01*
X2524944Y-2324460D02*
X2505896Y-2333984D01*
X2505896Y-2333984D02*
X2486848Y-2333984D01*
X2486848Y-2333984D02*
X2467801Y-2324460D01*
X2467801Y-2324460D02*
X2458277Y-2314936D01*
X2458277Y-2314936D02*
X2448753Y-2295889D01*
X2448753Y-2295889D02*
X2439229Y-2257793D01*
X2439229Y-2257793D02*
X2439229Y-2210174D01*
X2439229Y-2210174D02*
X2448753Y-2172079D01*
X2448753Y-2172079D02*
X2458277Y-2153031D01*
X2458277Y-2153031D02*
X2467801Y-2143508D01*
X2467801Y-2143508D02*
X2486848Y-2133984D01*
X2620182Y-2133984D02*
X2743991Y-2133984D01*
X2743991Y-2133984D02*
X2677325Y-2210174D01*
X2677325Y-2210174D02*
X2705896Y-2210174D01*
X2705896Y-2210174D02*
X2724944Y-2219698D01*
X2724944Y-2219698D02*
X2734468Y-2229222D01*
X2734468Y-2229222D02*
X2743991Y-2248270D01*
X2743991Y-2248270D02*
X2743991Y-2295889D01*
X2743991Y-2295889D02*
X2734468Y-2314936D01*
X2734468Y-2314936D02*
X2724944Y-2324460D01*
X2724944Y-2324460D02*
X2705896Y-2333984D01*
X2705896Y-2333984D02*
X2648753Y-2333984D01*
X2648753Y-2333984D02*
X2629706Y-2324460D01*
X2629706Y-2324460D02*
X2620182Y-2314936D01*
X2934467Y-2333984D02*
X2820182Y-2333984D01*
X2877325Y-2333984D02*
X2877325Y-2133984D01*
X2877325Y-2133984D02*
X2858277Y-2162555D01*
X2858277Y-2162555D02*
X2839229Y-2181603D01*
X2839229Y-2181603D02*
X2820182Y-2191127D01*
X3115420Y-2133984D02*
X3020182Y-2133984D01*
X3020182Y-2133984D02*
X3010658Y-2229222D01*
X3010658Y-2229222D02*
X3020182Y-2219698D01*
X3020182Y-2219698D02*
X3039229Y-2210174D01*
X3039229Y-2210174D02*
X3086848Y-2210174D01*
X3086848Y-2210174D02*
X3105896Y-2219698D01*
X3105896Y-2219698D02*
X3115420Y-2229222D01*
X3115420Y-2229222D02*
X3124944Y-2248270D01*
X3124944Y-2248270D02*
X3124944Y-2295889D01*
X3124944Y-2295889D02*
X3115420Y-2314936D01*
X3115420Y-2314936D02*
X3105896Y-2324460D01*
X3105896Y-2324460D02*
X3086848Y-2333984D01*
X3086848Y-2333984D02*
X3039229Y-2333984D01*
X3039229Y-2333984D02*
X3020182Y-2324460D01*
X3020182Y-2324460D02*
X3010658Y-2314936D01*
X3201134Y-2133984D02*
X3201134Y-2172079D01*
X3277325Y-2133984D02*
X3277325Y-2172079D01*
X3572563Y-2410174D02*
X3563039Y-2400650D01*
X3563039Y-2400650D02*
X3543991Y-2372079D01*
X3543991Y-2372079D02*
X3534468Y-2353031D01*
X3534468Y-2353031D02*
X3524944Y-2324460D01*
X3524944Y-2324460D02*
X3515420Y-2276841D01*
X3515420Y-2276841D02*
X3515420Y-2238746D01*
X3515420Y-2238746D02*
X3524944Y-2191127D01*
X3524944Y-2191127D02*
X3534468Y-2162555D01*
X3534468Y-2162555D02*
X3543991Y-2143508D01*
X3543991Y-2143508D02*
X3563039Y-2114936D01*
X3563039Y-2114936D02*
X3572563Y-2105412D01*
X3753515Y-2333984D02*
X3639229Y-2333984D01*
X3696372Y-2333984D02*
X3696372Y-2133984D01*
X3696372Y-2133984D02*
X3677325Y-2162555D01*
X3677325Y-2162555D02*
X3658277Y-2181603D01*
X3658277Y-2181603D02*
X3639229Y-2191127D01*
X3877325Y-2133984D02*
X3896372Y-2133984D01*
X3896372Y-2133984D02*
X3915420Y-2143508D01*
X3915420Y-2143508D02*
X3924944Y-2153031D01*
X3924944Y-2153031D02*
X3934468Y-2172079D01*
X3934468Y-2172079D02*
X3943991Y-2210174D01*
X3943991Y-2210174D02*
X3943991Y-2257793D01*
X3943991Y-2257793D02*
X3934468Y-2295889D01*
X3934468Y-2295889D02*
X3924944Y-2314936D01*
X3924944Y-2314936D02*
X3915420Y-2324460D01*
X3915420Y-2324460D02*
X3896372Y-2333984D01*
X3896372Y-2333984D02*
X3877325Y-2333984D01*
X3877325Y-2333984D02*
X3858277Y-2324460D01*
X3858277Y-2324460D02*
X3848753Y-2314936D01*
X3848753Y-2314936D02*
X3839229Y-2295889D01*
X3839229Y-2295889D02*
X3829706Y-2257793D01*
X3829706Y-2257793D02*
X3829706Y-2210174D01*
X3829706Y-2210174D02*
X3839229Y-2172079D01*
X3839229Y-2172079D02*
X3848753Y-2153031D01*
X3848753Y-2153031D02*
X3858277Y-2143508D01*
X3858277Y-2143508D02*
X3877325Y-2133984D01*
X4182087Y-2333984D02*
X4182087Y-2133984D01*
X4267801Y-2333984D02*
X4267801Y-2229222D01*
X4267801Y-2229222D02*
X4258277Y-2210174D01*
X4258277Y-2210174D02*
X4239230Y-2200650D01*
X4239230Y-2200650D02*
X4210658Y-2200650D01*
X4210658Y-2200650D02*
X4191610Y-2210174D01*
X4191610Y-2210174D02*
X4182087Y-2219698D01*
X4391611Y-2333984D02*
X4372563Y-2324460D01*
X4372563Y-2324460D02*
X4363039Y-2314936D01*
X4363039Y-2314936D02*
X4353515Y-2295889D01*
X4353515Y-2295889D02*
X4353515Y-2238746D01*
X4353515Y-2238746D02*
X4363039Y-2219698D01*
X4363039Y-2219698D02*
X4372563Y-2210174D01*
X4372563Y-2210174D02*
X4391611Y-2200650D01*
X4391611Y-2200650D02*
X4420182Y-2200650D01*
X4420182Y-2200650D02*
X4439230Y-2210174D01*
X4439230Y-2210174D02*
X4448753Y-2219698D01*
X4448753Y-2219698D02*
X4458277Y-2238746D01*
X4458277Y-2238746D02*
X4458277Y-2295889D01*
X4458277Y-2295889D02*
X4448753Y-2314936D01*
X4448753Y-2314936D02*
X4439230Y-2324460D01*
X4439230Y-2324460D02*
X4420182Y-2333984D01*
X4420182Y-2333984D02*
X4391611Y-2333984D01*
X4572563Y-2333984D02*
X4553515Y-2324460D01*
X4553515Y-2324460D02*
X4543992Y-2305412D01*
X4543992Y-2305412D02*
X4543992Y-2133984D01*
X4724944Y-2324460D02*
X4705896Y-2333984D01*
X4705896Y-2333984D02*
X4667801Y-2333984D01*
X4667801Y-2333984D02*
X4648753Y-2324460D01*
X4648753Y-2324460D02*
X4639230Y-2305412D01*
X4639230Y-2305412D02*
X4639230Y-2229222D01*
X4639230Y-2229222D02*
X4648753Y-2210174D01*
X4648753Y-2210174D02*
X4667801Y-2200650D01*
X4667801Y-2200650D02*
X4705896Y-2200650D01*
X4705896Y-2200650D02*
X4724944Y-2210174D01*
X4724944Y-2210174D02*
X4734468Y-2229222D01*
X4734468Y-2229222D02*
X4734468Y-2248270D01*
X4734468Y-2248270D02*
X4639230Y-2267317D01*
X4810658Y-2324460D02*
X4829706Y-2333984D01*
X4829706Y-2333984D02*
X4867801Y-2333984D01*
X4867801Y-2333984D02*
X4886849Y-2324460D01*
X4886849Y-2324460D02*
X4896373Y-2305412D01*
X4896373Y-2305412D02*
X4896373Y-2295889D01*
X4896373Y-2295889D02*
X4886849Y-2276841D01*
X4886849Y-2276841D02*
X4867801Y-2267317D01*
X4867801Y-2267317D02*
X4839230Y-2267317D01*
X4839230Y-2267317D02*
X4820182Y-2257793D01*
X4820182Y-2257793D02*
X4810658Y-2238746D01*
X4810658Y-2238746D02*
X4810658Y-2229222D01*
X4810658Y-2229222D02*
X4820182Y-2210174D01*
X4820182Y-2210174D02*
X4839230Y-2200650D01*
X4839230Y-2200650D02*
X4867801Y-2200650D01*
X4867801Y-2200650D02*
X4886849Y-2210174D01*
X4963039Y-2410174D02*
X4972563Y-2400650D01*
X4972563Y-2400650D02*
X4991611Y-2372079D01*
X4991611Y-2372079D02*
X5001134Y-2353031D01*
X5001134Y-2353031D02*
X5010658Y-2324460D01*
X5010658Y-2324460D02*
X5020182Y-2276841D01*
X5020182Y-2276841D02*
X5020182Y-2238746D01*
X5020182Y-2238746D02*
X5010658Y-2191127D01*
X5010658Y-2191127D02*
X5001134Y-2162555D01*
X5001134Y-2162555D02*
X4991611Y-2143508D01*
X4991611Y-2143508D02*
X4972563Y-2114936D01*
X4972563Y-2114936D02*
X4963039Y-2105412D01*
D13*
X-2500Y-2506500D02*
G75*
G02*
X-112500Y-2506500I-55000J0D01*
G01*
X-112500Y-2506500D02*
G75*
G02*
X-2500Y-2506500I55000J0D01*
G01*
D11*
X363039Y-2597984D02*
X248753Y-2597984D01*
X305896Y-2597984D02*
X305896Y-2397984D01*
X305896Y-2397984D02*
X286848Y-2426555D01*
X286848Y-2426555D02*
X267801Y-2445603D01*
X267801Y-2445603D02*
X248753Y-2455127D01*
X448753Y-2578936D02*
X458277Y-2588460D01*
X458277Y-2588460D02*
X448753Y-2597984D01*
X448753Y-2597984D02*
X439229Y-2588460D01*
X439229Y-2588460D02*
X448753Y-2578936D01*
X448753Y-2578936D02*
X448753Y-2597984D01*
X648753Y-2597984D02*
X534467Y-2597984D01*
X591610Y-2597984D02*
X591610Y-2397984D01*
X591610Y-2397984D02*
X572563Y-2426555D01*
X572563Y-2426555D02*
X553515Y-2445603D01*
X553515Y-2445603D02*
X534467Y-2455127D01*
X772562Y-2397984D02*
X791610Y-2397984D01*
X791610Y-2397984D02*
X810658Y-2407508D01*
X810658Y-2407508D02*
X820182Y-2417031D01*
X820182Y-2417031D02*
X829705Y-2436079D01*
X829705Y-2436079D02*
X839229Y-2474174D01*
X839229Y-2474174D02*
X839229Y-2521793D01*
X839229Y-2521793D02*
X829705Y-2559889D01*
X829705Y-2559889D02*
X820182Y-2578936D01*
X820182Y-2578936D02*
X810658Y-2588460D01*
X810658Y-2588460D02*
X791610Y-2597984D01*
X791610Y-2597984D02*
X772562Y-2597984D01*
X772562Y-2597984D02*
X753515Y-2588460D01*
X753515Y-2588460D02*
X743991Y-2578936D01*
X743991Y-2578936D02*
X734467Y-2559889D01*
X734467Y-2559889D02*
X724943Y-2521793D01*
X724943Y-2521793D02*
X724943Y-2474174D01*
X724943Y-2474174D02*
X734467Y-2436079D01*
X734467Y-2436079D02*
X743991Y-2417031D01*
X743991Y-2417031D02*
X753515Y-2407508D01*
X753515Y-2407508D02*
X772562Y-2397984D01*
X963039Y-2397984D02*
X982086Y-2397984D01*
X982086Y-2397984D02*
X1001134Y-2407508D01*
X1001134Y-2407508D02*
X1010658Y-2417031D01*
X1010658Y-2417031D02*
X1020182Y-2436079D01*
X1020182Y-2436079D02*
X1029705Y-2474174D01*
X1029705Y-2474174D02*
X1029705Y-2521793D01*
X1029705Y-2521793D02*
X1020182Y-2559889D01*
X1020182Y-2559889D02*
X1010658Y-2578936D01*
X1010658Y-2578936D02*
X1001134Y-2588460D01*
X1001134Y-2588460D02*
X982086Y-2597984D01*
X982086Y-2597984D02*
X963039Y-2597984D01*
X963039Y-2597984D02*
X943991Y-2588460D01*
X943991Y-2588460D02*
X934467Y-2578936D01*
X934467Y-2578936D02*
X924943Y-2559889D01*
X924943Y-2559889D02*
X915420Y-2521793D01*
X915420Y-2521793D02*
X915420Y-2474174D01*
X915420Y-2474174D02*
X924943Y-2436079D01*
X924943Y-2436079D02*
X934467Y-2417031D01*
X934467Y-2417031D02*
X943991Y-2407508D01*
X943991Y-2407508D02*
X963039Y-2397984D01*
X1115420Y-2597984D02*
X1115420Y-2464650D01*
X1115420Y-2483698D02*
X1124944Y-2474174D01*
X1124944Y-2474174D02*
X1143991Y-2464650D01*
X1143991Y-2464650D02*
X1172563Y-2464650D01*
X1172563Y-2464650D02*
X1191610Y-2474174D01*
X1191610Y-2474174D02*
X1201134Y-2493222D01*
X1201134Y-2493222D02*
X1201134Y-2597984D01*
X1201134Y-2493222D02*
X1210658Y-2474174D01*
X1210658Y-2474174D02*
X1229705Y-2464650D01*
X1229705Y-2464650D02*
X1258277Y-2464650D01*
X1258277Y-2464650D02*
X1277325Y-2474174D01*
X1277325Y-2474174D02*
X1286848Y-2493222D01*
X1286848Y-2493222D02*
X1286848Y-2597984D01*
X1382086Y-2597984D02*
X1382086Y-2464650D01*
X1382086Y-2483698D02*
X1391610Y-2474174D01*
X1391610Y-2474174D02*
X1410658Y-2464650D01*
X1410658Y-2464650D02*
X1439229Y-2464650D01*
X1439229Y-2464650D02*
X1458277Y-2474174D01*
X1458277Y-2474174D02*
X1467801Y-2493222D01*
X1467801Y-2493222D02*
X1467801Y-2597984D01*
X1467801Y-2493222D02*
X1477324Y-2474174D01*
X1477324Y-2474174D02*
X1496372Y-2464650D01*
X1496372Y-2464650D02*
X1524943Y-2464650D01*
X1524943Y-2464650D02*
X1543991Y-2474174D01*
X1543991Y-2474174D02*
X1553515Y-2493222D01*
X1553515Y-2493222D02*
X1553515Y-2597984D01*
X1943991Y-2388460D02*
X1772563Y-2645603D01*
X2201134Y-2397984D02*
X2220182Y-2397984D01*
X2220182Y-2397984D02*
X2239229Y-2407508D01*
X2239229Y-2407508D02*
X2248753Y-2417031D01*
X2248753Y-2417031D02*
X2258277Y-2436079D01*
X2258277Y-2436079D02*
X2267801Y-2474174D01*
X2267801Y-2474174D02*
X2267801Y-2521793D01*
X2267801Y-2521793D02*
X2258277Y-2559889D01*
X2258277Y-2559889D02*
X2248753Y-2578936D01*
X2248753Y-2578936D02*
X2239229Y-2588460D01*
X2239229Y-2588460D02*
X2220182Y-2597984D01*
X2220182Y-2597984D02*
X2201134Y-2597984D01*
X2201134Y-2597984D02*
X2182087Y-2588460D01*
X2182087Y-2588460D02*
X2172563Y-2578936D01*
X2172563Y-2578936D02*
X2163039Y-2559889D01*
X2163039Y-2559889D02*
X2153515Y-2521793D01*
X2153515Y-2521793D02*
X2153515Y-2474174D01*
X2153515Y-2474174D02*
X2163039Y-2436079D01*
X2163039Y-2436079D02*
X2172563Y-2417031D01*
X2172563Y-2417031D02*
X2182087Y-2407508D01*
X2182087Y-2407508D02*
X2201134Y-2397984D01*
X2353515Y-2578936D02*
X2363039Y-2588460D01*
X2363039Y-2588460D02*
X2353515Y-2597984D01*
X2353515Y-2597984D02*
X2343991Y-2588460D01*
X2343991Y-2588460D02*
X2353515Y-2578936D01*
X2353515Y-2578936D02*
X2353515Y-2597984D01*
X2486848Y-2397984D02*
X2505896Y-2397984D01*
X2505896Y-2397984D02*
X2524944Y-2407508D01*
X2524944Y-2407508D02*
X2534468Y-2417031D01*
X2534468Y-2417031D02*
X2543991Y-2436079D01*
X2543991Y-2436079D02*
X2553515Y-2474174D01*
X2553515Y-2474174D02*
X2553515Y-2521793D01*
X2553515Y-2521793D02*
X2543991Y-2559889D01*
X2543991Y-2559889D02*
X2534468Y-2578936D01*
X2534468Y-2578936D02*
X2524944Y-2588460D01*
X2524944Y-2588460D02*
X2505896Y-2597984D01*
X2505896Y-2597984D02*
X2486848Y-2597984D01*
X2486848Y-2597984D02*
X2467801Y-2588460D01*
X2467801Y-2588460D02*
X2458277Y-2578936D01*
X2458277Y-2578936D02*
X2448753Y-2559889D01*
X2448753Y-2559889D02*
X2439229Y-2521793D01*
X2439229Y-2521793D02*
X2439229Y-2474174D01*
X2439229Y-2474174D02*
X2448753Y-2436079D01*
X2448753Y-2436079D02*
X2458277Y-2417031D01*
X2458277Y-2417031D02*
X2467801Y-2407508D01*
X2467801Y-2407508D02*
X2486848Y-2397984D01*
X2724944Y-2464650D02*
X2724944Y-2597984D01*
X2677325Y-2388460D02*
X2629706Y-2531317D01*
X2629706Y-2531317D02*
X2753515Y-2531317D01*
X2810658Y-2397984D02*
X2934467Y-2397984D01*
X2934467Y-2397984D02*
X2867801Y-2474174D01*
X2867801Y-2474174D02*
X2896372Y-2474174D01*
X2896372Y-2474174D02*
X2915420Y-2483698D01*
X2915420Y-2483698D02*
X2924944Y-2493222D01*
X2924944Y-2493222D02*
X2934467Y-2512270D01*
X2934467Y-2512270D02*
X2934467Y-2559889D01*
X2934467Y-2559889D02*
X2924944Y-2578936D01*
X2924944Y-2578936D02*
X2915420Y-2588460D01*
X2915420Y-2588460D02*
X2896372Y-2597984D01*
X2896372Y-2597984D02*
X2839229Y-2597984D01*
X2839229Y-2597984D02*
X2820182Y-2588460D01*
X2820182Y-2588460D02*
X2810658Y-2578936D01*
X3001134Y-2397984D02*
X3124944Y-2397984D01*
X3124944Y-2397984D02*
X3058277Y-2474174D01*
X3058277Y-2474174D02*
X3086848Y-2474174D01*
X3086848Y-2474174D02*
X3105896Y-2483698D01*
X3105896Y-2483698D02*
X3115420Y-2493222D01*
X3115420Y-2493222D02*
X3124944Y-2512270D01*
X3124944Y-2512270D02*
X3124944Y-2559889D01*
X3124944Y-2559889D02*
X3115420Y-2578936D01*
X3115420Y-2578936D02*
X3105896Y-2588460D01*
X3105896Y-2588460D02*
X3086848Y-2597984D01*
X3086848Y-2597984D02*
X3029706Y-2597984D01*
X3029706Y-2597984D02*
X3010658Y-2588460D01*
X3010658Y-2588460D02*
X3001134Y-2578936D01*
X3201134Y-2397984D02*
X3201134Y-2436079D01*
X3277325Y-2397984D02*
X3277325Y-2436079D01*
X3572563Y-2674174D02*
X3563039Y-2664650D01*
X3563039Y-2664650D02*
X3543991Y-2636079D01*
X3543991Y-2636079D02*
X3534468Y-2617031D01*
X3534468Y-2617031D02*
X3524944Y-2588460D01*
X3524944Y-2588460D02*
X3515420Y-2540841D01*
X3515420Y-2540841D02*
X3515420Y-2502746D01*
X3515420Y-2502746D02*
X3524944Y-2455127D01*
X3524944Y-2455127D02*
X3534468Y-2426555D01*
X3534468Y-2426555D02*
X3543991Y-2407508D01*
X3543991Y-2407508D02*
X3563039Y-2378936D01*
X3563039Y-2378936D02*
X3572563Y-2369412D01*
X3677325Y-2483698D02*
X3658277Y-2474174D01*
X3658277Y-2474174D02*
X3648753Y-2464650D01*
X3648753Y-2464650D02*
X3639229Y-2445603D01*
X3639229Y-2445603D02*
X3639229Y-2436079D01*
X3639229Y-2436079D02*
X3648753Y-2417031D01*
X3648753Y-2417031D02*
X3658277Y-2407508D01*
X3658277Y-2407508D02*
X3677325Y-2397984D01*
X3677325Y-2397984D02*
X3715420Y-2397984D01*
X3715420Y-2397984D02*
X3734468Y-2407508D01*
X3734468Y-2407508D02*
X3743991Y-2417031D01*
X3743991Y-2417031D02*
X3753515Y-2436079D01*
X3753515Y-2436079D02*
X3753515Y-2445603D01*
X3753515Y-2445603D02*
X3743991Y-2464650D01*
X3743991Y-2464650D02*
X3734468Y-2474174D01*
X3734468Y-2474174D02*
X3715420Y-2483698D01*
X3715420Y-2483698D02*
X3677325Y-2483698D01*
X3677325Y-2483698D02*
X3658277Y-2493222D01*
X3658277Y-2493222D02*
X3648753Y-2502746D01*
X3648753Y-2502746D02*
X3639229Y-2521793D01*
X3639229Y-2521793D02*
X3639229Y-2559889D01*
X3639229Y-2559889D02*
X3648753Y-2578936D01*
X3648753Y-2578936D02*
X3658277Y-2588460D01*
X3658277Y-2588460D02*
X3677325Y-2597984D01*
X3677325Y-2597984D02*
X3715420Y-2597984D01*
X3715420Y-2597984D02*
X3734468Y-2588460D01*
X3734468Y-2588460D02*
X3743991Y-2578936D01*
X3743991Y-2578936D02*
X3753515Y-2559889D01*
X3753515Y-2559889D02*
X3753515Y-2521793D01*
X3753515Y-2521793D02*
X3743991Y-2502746D01*
X3743991Y-2502746D02*
X3734468Y-2493222D01*
X3734468Y-2493222D02*
X3715420Y-2483698D01*
X3991610Y-2597984D02*
X3991610Y-2397984D01*
X4077325Y-2597984D02*
X4077325Y-2493222D01*
X4077325Y-2493222D02*
X4067801Y-2474174D01*
X4067801Y-2474174D02*
X4048753Y-2464650D01*
X4048753Y-2464650D02*
X4020182Y-2464650D01*
X4020182Y-2464650D02*
X4001134Y-2474174D01*
X4001134Y-2474174D02*
X3991610Y-2483698D01*
X4201134Y-2597984D02*
X4182087Y-2588460D01*
X4182087Y-2588460D02*
X4172563Y-2578936D01*
X4172563Y-2578936D02*
X4163039Y-2559889D01*
X4163039Y-2559889D02*
X4163039Y-2502746D01*
X4163039Y-2502746D02*
X4172563Y-2483698D01*
X4172563Y-2483698D02*
X4182087Y-2474174D01*
X4182087Y-2474174D02*
X4201134Y-2464650D01*
X4201134Y-2464650D02*
X4229706Y-2464650D01*
X4229706Y-2464650D02*
X4248753Y-2474174D01*
X4248753Y-2474174D02*
X4258277Y-2483698D01*
X4258277Y-2483698D02*
X4267801Y-2502746D01*
X4267801Y-2502746D02*
X4267801Y-2559889D01*
X4267801Y-2559889D02*
X4258277Y-2578936D01*
X4258277Y-2578936D02*
X4248753Y-2588460D01*
X4248753Y-2588460D02*
X4229706Y-2597984D01*
X4229706Y-2597984D02*
X4201134Y-2597984D01*
X4382087Y-2597984D02*
X4363039Y-2588460D01*
X4363039Y-2588460D02*
X4353515Y-2569412D01*
X4353515Y-2569412D02*
X4353515Y-2397984D01*
X4534468Y-2588460D02*
X4515420Y-2597984D01*
X4515420Y-2597984D02*
X4477325Y-2597984D01*
X4477325Y-2597984D02*
X4458277Y-2588460D01*
X4458277Y-2588460D02*
X4448753Y-2569412D01*
X4448753Y-2569412D02*
X4448753Y-2493222D01*
X4448753Y-2493222D02*
X4458277Y-2474174D01*
X4458277Y-2474174D02*
X4477325Y-2464650D01*
X4477325Y-2464650D02*
X4515420Y-2464650D01*
X4515420Y-2464650D02*
X4534468Y-2474174D01*
X4534468Y-2474174D02*
X4543992Y-2493222D01*
X4543992Y-2493222D02*
X4543992Y-2512270D01*
X4543992Y-2512270D02*
X4448753Y-2531317D01*
X4620182Y-2588460D02*
X4639230Y-2597984D01*
X4639230Y-2597984D02*
X4677325Y-2597984D01*
X4677325Y-2597984D02*
X4696373Y-2588460D01*
X4696373Y-2588460D02*
X4705896Y-2569412D01*
X4705896Y-2569412D02*
X4705896Y-2559889D01*
X4705896Y-2559889D02*
X4696373Y-2540841D01*
X4696373Y-2540841D02*
X4677325Y-2531317D01*
X4677325Y-2531317D02*
X4648753Y-2531317D01*
X4648753Y-2531317D02*
X4629706Y-2521793D01*
X4629706Y-2521793D02*
X4620182Y-2502746D01*
X4620182Y-2502746D02*
X4620182Y-2493222D01*
X4620182Y-2493222D02*
X4629706Y-2474174D01*
X4629706Y-2474174D02*
X4648753Y-2464650D01*
X4648753Y-2464650D02*
X4677325Y-2464650D01*
X4677325Y-2464650D02*
X4696373Y-2474174D01*
X4772563Y-2674174D02*
X4782087Y-2664650D01*
X4782087Y-2664650D02*
X4801134Y-2636079D01*
X4801134Y-2636079D02*
X4810658Y-2617031D01*
X4810658Y-2617031D02*
X4820182Y-2588460D01*
X4820182Y-2588460D02*
X4829706Y-2540841D01*
X4829706Y-2540841D02*
X4829706Y-2502746D01*
X4829706Y-2502746D02*
X4820182Y-2455127D01*
X4820182Y-2455127D02*
X4810658Y-2426555D01*
X4810658Y-2426555D02*
X4801134Y-2407508D01*
X4801134Y-2407508D02*
X4782087Y-2378936D01*
X4782087Y-2378936D02*
X4772563Y-2369412D01*
M02*
